<svg width="97" height="20" viewBox="0 0 97 20" fill="none" xmlns="http://www.w3.org/2000/svg">
<path d="M30.1167 0.663786H27.8814L24.9751 19.3362H35.6199L35.9042 17.4823H27.4947L30.1167 0.663786Z" fill="white"/>
<path d="M48.092 0.428123C42.5115 0.428123 38.2187 5.2337 38.2187 11.1881C38.2187 15.9937 41.535 19.5719 46.6263 19.5719C52.0521 19.5719 56.3468 15.0275 56.3468 8.83936C56.3448 4.26748 53.3883 0.428123 48.092 0.428123ZM46.6514 17.7101C43.078 17.7101 40.5314 15.2553 40.5314 11.1803C40.5314 6.34918 43.4319 2.24863 48.0727 2.24863C51.9303 2.24863 54.038 5.19442 54.038 8.82954C54.0322 13.9297 51.0234 17.716 46.6514 17.716V17.7101Z" fill="white"/>
<path d="M68.2001 11.7832H73.6511C73.1116 15.2298 71.1818 17.7376 67.5059 17.7376C63.4684 17.7376 61.411 15.1257 61.411 11.1312C61.411 6.22152 64.1626 2.22506 68.6622 2.22506C71.3887 2.22506 73.419 3.5055 73.6762 6.29811H75.8883C75.6311 2.30165 72.4425 0.422232 68.7144 0.422232C63.161 0.422232 59.0984 5.30636 59.0984 11.1292C59.0984 15.9348 62.1071 19.5738 67.4556 19.5738C72.4193 19.5738 75.5306 16.6496 76.0952 9.91163H68.5076L68.2001 11.7832Z" fill="white"/>
<path d="M88.7452 0.428123C83.1647 0.428123 78.8719 5.2337 78.8719 11.1881C78.8719 15.9937 82.1882 19.5719 87.2795 19.5719C92.7053 19.5719 97 15.0275 97 8.83936C97 4.26748 94.0415 0.428123 88.7452 0.428123ZM87.3046 17.7101C83.7312 17.7101 81.1846 15.2553 81.1846 11.1803C81.1846 6.34918 84.0851 2.24863 88.7259 2.24863C92.5835 2.24863 94.6912 5.19442 94.6912 8.82954C94.6854 13.9297 91.6766 17.716 87.3046 17.716V17.7101Z" fill="white"/>
<path d="M17.7181 0H3.11125L0 20H14.5082L17.7181 0Z" fill="white"/>
</svg>
